<mxfile host="app.diagrams.net" modified="2024-01-03T13:26:07.521Z" agent="Mozilla/5.0 (Windows NT 10.0; Win64; x64) AppleWebKit/537.36 (KHTML, like Gecko) Chrome/120.0.0.0 Safari/537.36" etag="3Bt0ftufT8b_7B-t9AD6" version="22.1.16" type="device">
  <diagram name="Page-1" id="XMWeRMQZ5Ynmzg_VOG7D">
    <mxGraphModel dx="838" dy="526" grid="1" gridSize="10" guides="1" tooltips="1" connect="1" arrows="1" fold="1" page="1" pageScale="1" pageWidth="827" pageHeight="1169" math="0" shadow="0">
      <root>
        <mxCell id="0" />
        <mxCell id="1" parent="0" />
        <mxCell id="3Ba2R-CBzMaeCA9EdWey-6" style="edgeStyle=orthogonalEdgeStyle;rounded=0;orthogonalLoop=1;jettySize=auto;html=1;exitX=1;exitY=0.5;exitDx=0;exitDy=0;entryX=0;entryY=0.5;entryDx=0;entryDy=0;" edge="1" parent="1" source="3Ba2R-CBzMaeCA9EdWey-2">
          <mxGeometry relative="1" as="geometry">
            <mxPoint x="510" y="120" as="targetPoint" />
          </mxGeometry>
        </mxCell>
        <mxCell id="3Ba2R-CBzMaeCA9EdWey-7" value="&amp;nbsp;Yes&amp;nbsp;" style="edgeLabel;html=1;align=center;verticalAlign=middle;resizable=0;points=[];" vertex="1" connectable="0" parent="3Ba2R-CBzMaeCA9EdWey-6">
          <mxGeometry x="-0.1667" y="-3" relative="1" as="geometry">
            <mxPoint as="offset" />
          </mxGeometry>
        </mxCell>
        <mxCell id="3Ba2R-CBzMaeCA9EdWey-2" value="&lt;font style=&quot;font-size: 14px;&quot;&gt;Is worm already root?&lt;/font&gt;" style="rhombus;whiteSpace=wrap;html=1;" vertex="1" parent="1">
          <mxGeometry x="274" y="80" width="170" height="80" as="geometry" />
        </mxCell>
        <mxCell id="3Ba2R-CBzMaeCA9EdWey-3" value="" style="endArrow=classic;html=1;rounded=0;exitX=0.5;exitY=1;exitDx=0;exitDy=0;entryX=0.5;entryY=0;entryDx=0;entryDy=0;" edge="1" parent="1" source="3Ba2R-CBzMaeCA9EdWey-2" target="3Ba2R-CBzMaeCA9EdWey-10">
          <mxGeometry width="50" height="50" relative="1" as="geometry">
            <mxPoint x="394" y="340" as="sourcePoint" />
            <mxPoint x="359" y="210" as="targetPoint" />
          </mxGeometry>
        </mxCell>
        <mxCell id="3Ba2R-CBzMaeCA9EdWey-8" value="&amp;nbsp;No" style="edgeLabel;html=1;align=center;verticalAlign=middle;resizable=0;points=[];" vertex="1" connectable="0" parent="3Ba2R-CBzMaeCA9EdWey-3">
          <mxGeometry x="-0.3533" y="-3" relative="1" as="geometry">
            <mxPoint x="3" y="4" as="offset" />
          </mxGeometry>
        </mxCell>
        <mxCell id="3Ba2R-CBzMaeCA9EdWey-13" style="edgeStyle=orthogonalEdgeStyle;rounded=0;orthogonalLoop=1;jettySize=auto;html=1;exitX=0.5;exitY=1;exitDx=0;exitDy=0;entryX=0.5;entryY=0;entryDx=0;entryDy=0;" edge="1" parent="1" source="3Ba2R-CBzMaeCA9EdWey-10" target="3Ba2R-CBzMaeCA9EdWey-14">
          <mxGeometry relative="1" as="geometry">
            <mxPoint x="359" y="310" as="targetPoint" />
          </mxGeometry>
        </mxCell>
        <mxCell id="3Ba2R-CBzMaeCA9EdWey-10" value="&lt;font style=&quot;font-size: 14px;&quot;&gt;Detect kernel version by reading &lt;i&gt;/proc/version&lt;/i&gt; file&lt;/font&gt;" style="rounded=0;whiteSpace=wrap;html=1;" vertex="1" parent="1">
          <mxGeometry x="293.5" y="210" width="131" height="70" as="geometry" />
        </mxCell>
        <mxCell id="3Ba2R-CBzMaeCA9EdWey-14" value="&lt;font style=&quot;font-size: 14px;&quot;&gt;Kernel version&lt;/font&gt;" style="rounded=1;whiteSpace=wrap;html=1;" vertex="1" parent="1">
          <mxGeometry x="308.5" y="310" width="101" height="30" as="geometry" />
        </mxCell>
        <mxCell id="3Ba2R-CBzMaeCA9EdWey-15" value="" style="endArrow=classic;html=1;rounded=0;exitX=1;exitY=0.5;exitDx=0;exitDy=0;entryX=0.5;entryY=0;entryDx=0;entryDy=0;" edge="1" parent="1" source="3Ba2R-CBzMaeCA9EdWey-14" target="3Ba2R-CBzMaeCA9EdWey-17">
          <mxGeometry width="50" height="50" relative="1" as="geometry">
            <mxPoint x="400" y="350" as="sourcePoint" />
            <mxPoint x="570" y="360" as="targetPoint" />
            <Array as="points">
              <mxPoint x="575" y="325" />
            </Array>
          </mxGeometry>
        </mxCell>
        <mxCell id="3Ba2R-CBzMaeCA9EdWey-16" value="&amp;nbsp;Between 4.10 and 5.1.17&amp;nbsp;" style="edgeLabel;html=1;align=center;verticalAlign=middle;resizable=0;points=[];labelBorderColor=none;fontColor=default;labelBackgroundColor=default;" vertex="1" connectable="0" parent="3Ba2R-CBzMaeCA9EdWey-15">
          <mxGeometry x="-0.4376" y="-1" relative="1" as="geometry">
            <mxPoint x="26" y="-1" as="offset" />
          </mxGeometry>
        </mxCell>
        <mxCell id="3Ba2R-CBzMaeCA9EdWey-17" value="&lt;font style=&quot;font-size: 14px;&quot;&gt;Vulnerable to&lt;br&gt;CVE-2019-13272&lt;/font&gt;&lt;span id=&quot;docs-internal-guid-ed3416c1-7fff-e82f-e609-59aca7f9d29d&quot;&gt;&lt;/span&gt;" style="rounded=0;whiteSpace=wrap;html=1;" vertex="1" parent="1">
          <mxGeometry x="510" y="360" width="130" height="40" as="geometry" />
        </mxCell>
        <mxCell id="3Ba2R-CBzMaeCA9EdWey-19" value="&lt;span style=&quot;font-size: 14px;&quot;&gt;Run corresponding exploit&lt;/span&gt;" style="rounded=0;whiteSpace=wrap;html=1;" vertex="1" parent="1">
          <mxGeometry x="294.5" y="520" width="130" height="40" as="geometry" />
        </mxCell>
        <mxCell id="3Ba2R-CBzMaeCA9EdWey-20" value="" style="endArrow=classic;html=1;rounded=0;exitX=0.5;exitY=1;exitDx=0;exitDy=0;entryX=0.5;entryY=0;entryDx=0;entryDy=0;" edge="1" parent="1" source="3Ba2R-CBzMaeCA9EdWey-17" target="3Ba2R-CBzMaeCA9EdWey-19">
          <mxGeometry width="50" height="50" relative="1" as="geometry">
            <mxPoint x="400" y="360" as="sourcePoint" />
            <mxPoint x="450" y="310" as="targetPoint" />
            <Array as="points">
              <mxPoint x="575" y="490" />
              <mxPoint x="360" y="490" />
            </Array>
          </mxGeometry>
        </mxCell>
        <mxCell id="3Ba2R-CBzMaeCA9EdWey-21" value="&lt;font style=&quot;font-size: 14px;&quot;&gt;Vulnerable to&lt;br&gt;CVE-2021-22555&lt;/font&gt;&lt;span id=&quot;docs-internal-guid-ed3416c1-7fff-e82f-e609-59aca7f9d29d&quot;&gt;&lt;/span&gt;" style="rounded=0;whiteSpace=wrap;html=1;" vertex="1" parent="1">
          <mxGeometry x="80" y="360" width="130" height="40" as="geometry" />
        </mxCell>
        <mxCell id="3Ba2R-CBzMaeCA9EdWey-22" value="" style="endArrow=classic;html=1;rounded=0;exitX=0;exitY=0.5;exitDx=0;exitDy=0;entryX=0.5;entryY=0;entryDx=0;entryDy=0;" edge="1" parent="1" source="3Ba2R-CBzMaeCA9EdWey-14" target="3Ba2R-CBzMaeCA9EdWey-21">
          <mxGeometry width="50" height="50" relative="1" as="geometry">
            <mxPoint x="400" y="440" as="sourcePoint" />
            <mxPoint x="450" y="390" as="targetPoint" />
            <Array as="points">
              <mxPoint x="145" y="325" />
            </Array>
          </mxGeometry>
        </mxCell>
        <mxCell id="3Ba2R-CBzMaeCA9EdWey-23" value="&amp;nbsp;Between 2.6.19 and 5.9&amp;nbsp;" style="edgeLabel;html=1;align=center;verticalAlign=middle;resizable=0;points=[];" vertex="1" connectable="0" parent="3Ba2R-CBzMaeCA9EdWey-22">
          <mxGeometry x="-0.0999" y="2" relative="1" as="geometry">
            <mxPoint as="offset" />
          </mxGeometry>
        </mxCell>
        <mxCell id="3Ba2R-CBzMaeCA9EdWey-24" value="" style="endArrow=classic;html=1;rounded=0;exitX=0.5;exitY=1;exitDx=0;exitDy=0;entryX=0.5;entryY=0;entryDx=0;entryDy=0;" edge="1" parent="1" source="3Ba2R-CBzMaeCA9EdWey-21" target="3Ba2R-CBzMaeCA9EdWey-19">
          <mxGeometry width="50" height="50" relative="1" as="geometry">
            <mxPoint x="400" y="330" as="sourcePoint" />
            <mxPoint x="450" y="280" as="targetPoint" />
            <Array as="points">
              <mxPoint x="145" y="490" />
              <mxPoint x="360" y="490" />
            </Array>
          </mxGeometry>
        </mxCell>
        <mxCell id="3Ba2R-CBzMaeCA9EdWey-26" value="" style="endArrow=classic;html=1;rounded=0;exitX=0.5;exitY=1;exitDx=0;exitDy=0;entryX=0.5;entryY=0;entryDx=0;entryDy=0;" edge="1" parent="1" source="3Ba2R-CBzMaeCA9EdWey-19">
          <mxGeometry width="50" height="50" relative="1" as="geometry">
            <mxPoint x="370" y="545" as="sourcePoint" />
            <mxPoint x="359" y="584.9999999999999" as="targetPoint" />
          </mxGeometry>
        </mxCell>
        <mxCell id="3Ba2R-CBzMaeCA9EdWey-27" value="" style="endArrow=classic;html=1;rounded=0;exitX=0.5;exitY=1;exitDx=0;exitDy=0;entryX=0.5;entryY=0;entryDx=0;entryDy=0;" edge="1" parent="1" source="3Ba2R-CBzMaeCA9EdWey-14">
          <mxGeometry width="50" height="50" relative="1" as="geometry">
            <mxPoint x="370" y="500" as="sourcePoint" />
            <mxPoint x="359.5" y="409.9999999999999" as="targetPoint" />
          </mxGeometry>
        </mxCell>
        <mxCell id="3Ba2R-CBzMaeCA9EdWey-30" value="None of the other options" style="edgeLabel;html=1;align=center;verticalAlign=middle;resizable=0;points=[];" vertex="1" connectable="0" parent="3Ba2R-CBzMaeCA9EdWey-27">
          <mxGeometry x="-0.188" y="-1" relative="1" as="geometry">
            <mxPoint as="offset" />
          </mxGeometry>
        </mxCell>
        <mxCell id="3Ba2R-CBzMaeCA9EdWey-35" value="&lt;font style=&quot;font-size: 14px;&quot;&gt;Go to rootkit module&lt;/font&gt;" style="shape=parallelogram;perimeter=parallelogramPerimeter;whiteSpace=wrap;html=1;fixedSize=1;" vertex="1" parent="1">
          <mxGeometry x="273.37" y="585" width="171.25" height="30" as="geometry" />
        </mxCell>
        <mxCell id="3Ba2R-CBzMaeCA9EdWey-36" value="&lt;font style=&quot;font-size: 14px;&quot;&gt;Go to network&lt;br&gt;propagation module&lt;/font&gt;" style="shape=parallelogram;perimeter=parallelogramPerimeter;whiteSpace=wrap;html=1;fixedSize=1;" vertex="1" parent="1">
          <mxGeometry x="274.68" y="410" width="169.32" height="40" as="geometry" />
        </mxCell>
        <mxCell id="3Ba2R-CBzMaeCA9EdWey-37" value="&lt;font style=&quot;font-size: 14px;&quot;&gt;Go to rootkit module&lt;/font&gt;" style="shape=parallelogram;perimeter=parallelogramPerimeter;whiteSpace=wrap;html=1;fixedSize=1;" vertex="1" parent="1">
          <mxGeometry x="500" y="100" width="120" height="40" as="geometry" />
        </mxCell>
        <mxCell id="3Ba2R-CBzMaeCA9EdWey-38" value="&lt;font style=&quot;font-size: 14px;&quot;&gt;Start&lt;/font&gt;" style="ellipse;whiteSpace=wrap;html=1;aspect=fixed;" vertex="1" parent="1">
          <mxGeometry x="328.99" width="60" height="60" as="geometry" />
        </mxCell>
        <mxCell id="3Ba2R-CBzMaeCA9EdWey-39" value="" style="endArrow=classic;html=1;rounded=0;exitX=0.5;exitY=1;exitDx=0;exitDy=0;entryX=0.5;entryY=0;entryDx=0;entryDy=0;" edge="1" parent="1" source="3Ba2R-CBzMaeCA9EdWey-38" target="3Ba2R-CBzMaeCA9EdWey-2">
          <mxGeometry width="50" height="50" relative="1" as="geometry">
            <mxPoint x="290" y="190" as="sourcePoint" />
            <mxPoint x="340" y="140" as="targetPoint" />
          </mxGeometry>
        </mxCell>
      </root>
    </mxGraphModel>
  </diagram>
</mxfile>
